<?xml version="1.0"?>
<svg xmlns="http://www.w3.org/2000/svg" xmlns:xlink="http://www.w3.org/1999/xlink" xmlns:svgjs="http://svgjs.com/svgjs" version="1.1" width="512" height="512" x="0" y="0" viewBox="0 0 512 512" style="enable-background:new 0 0 512 512" xml:space="preserve" class=""><g><g xmlns="http://www.w3.org/2000/svg" id="outline"><path d="m88 496h136a8 8 0 0 0 8-8v-88h48v88a8 8 0 0 0 8 8h136a8 8 0 0 0 8-8v-140a92.1 92.1 0 0 0 -92-92h-168a92.1 92.1 0 0 0 -92 92v140a8 8 0 0 0 8 8zm8-148a76.086 76.086 0 0 1 76-76h168a76.086 76.086 0 0 1 76 76v132h-48v-88a8 8 0 0 0 -16 0v88h-56v-88a8 8 0 0 0 -8-8h-64a8 8 0 0 0 -8 8v88h-56v-88a8 8 0 0 0 -16 0v88h-48z" fill="#000000" data-original="#000000" style=""/><path d="m256 369.921a41.921 41.921 0 1 0 -29.657-12.264 41.813 41.813 0 0 0 29.657 12.264zm-18.343-60.264a25.941 25.941 0 1 1 0 36.686 25.861 25.861 0 0 1 0-36.686z" fill="#000000" data-original="#000000" style=""/><path d="m256 240a112 112 0 1 0 -112-112 112.127 112.127 0 0 0 112 112zm0-208a96 96 0 1 1 -96 96 96.108 96.108 0 0 1 96-96z" fill="#000000" data-original="#000000" style=""/><circle cx="216" cy="112" r="16" fill="#000000" data-original="#000000" style=""/><circle cx="296" cy="112" r="16" fill="#000000" data-original="#000000" style=""/><path d="m218.343 154.343a8 8 0 0 0 0 11.314 53.255 53.255 0 0 0 75.314 0 8 8 0 0 0 -11.314-11.314 37.254 37.254 0 0 1 -52.686 0 8 8 0 0 0 -11.314 0z" fill="#000000" data-original="#000000" style=""/></g></g></svg>
